<svg width="24" height="24" viewBox="0 0 24 24" fill="none" xmlns="http://www.w3.org/2000/svg">
<g clip-path="url(#clip0_9211_20553)">
<path d="M4 18H6V20H18V4H6V6H4V3C4 2.73478 4.10536 2.48043 4.29289 2.29289C4.48043 2.10536 4.73478 2 5 2H19C19.2652 2 19.5196 2.10536 19.7071 2.29289C19.8946 2.48043 20 2.73478 20 3V21C20 21.2652 19.8946 21.5196 19.7071 21.7071C19.5196 21.8946 19.2652 22 19 22H5C4.73478 22 4.48043 21.8946 4.29289 21.7071C4.10536 21.5196 4 21.2652 4 21V18Z" fill="currentcolor"/>
<path d="M13 12L8 16L8 13L1 13L1 11L8 11L8 8L13 12Z" fill="currentcolor"/>
</g>
<defs>
<clipPath id="clip0_9211_20553">
<rect width="24" height="24" fill="white"/>
</clipPath>
</defs>
</svg>
