<svg width="24" height="24" viewBox="0 0 24 24" fill="none" xmlns="http://www.w3.org/2000/svg">
<g clip-path="url(#clip0_8156_19321)">
<path d="M22 19H2V17H3V10.031C3 5.043 7.03 1 12 1C16.97 1 21 5.043 21 10.031V17H22V19ZM5 17H19V10.031C19 6.148 15.866 3 12 3C8.134 3 5 6.148 5 10.031V17ZM9.5 20H14.5C14.5 20.663 14.2366 21.2989 13.7678 21.7678C13.2989 22.2366 12.663 22.5 12 22.5C11.337 22.5 10.7011 22.2366 10.2322 21.7678C9.76339 21.2989 9.5 20.663 9.5 20Z" fill="currentcolor"/>
</g>
<defs>
<clipPath id="clip0_8156_19321">
<rect width="24" height="24" fill="white"/>
</clipPath>
</defs>
</svg>
