<svg width="24" height="24" viewBox="0 0 24 24" fill="none" xmlns="http://www.w3.org/2000/svg">
<path fill="currentColor" d="M22 11.1268C22 9.85915 21.0016 8.84507 19.7535 8.97183C19.2543 8.97183 18.6303 9.22535 18.2559 9.60563C16.5086 8.46479 14.5117 7.70422 12.39 7.70422L13.3885 2.88732L16.6334 3.64789C16.6334 4.53521 17.3822 5.16901 18.2559 5.16901C19.1295 5.16901 19.7535 4.40845 19.7535 3.52113C19.7535 2.6338 19.0047 2 18.131 2C17.507 2 17.0078 2.38028 16.7582 2.88732L13.2637 2H13.014C12.8892 2 12.8892 2.12676 12.8892 2.25352L11.6412 7.70422C9.5195 7.70422 7.52262 8.33803 5.77535 9.60563C4.90172 8.71831 3.52886 8.71831 2.65523 9.60563C1.78159 10.493 1.78159 11.8873 2.65523 12.7746C2.78003 12.9014 3.02964 13.1549 3.27925 13.1549V13.7887C3.27925 17.2113 7.14821 20 12.0156 20C16.883 20 20.752 17.2113 20.752 13.7887V13.1549C21.5008 12.7746 22 12.0141 22 11.1268V11.1268ZM7.0234 12.7746C7.0234 11.8873 7.77223 11.2535 8.52106 11.2535C9.3947 11.2535 10.0187 12.0141 10.0187 12.7746C10.0187 13.5352 9.26989 14.2958 8.52106 14.2958C7.64743 14.2958 7.0234 13.662 7.0234 12.7746ZM15.7598 16.9577C14.6365 17.7183 13.3885 18.2254 12.0156 18.0986C10.6427 18.0986 9.3947 17.7183 8.27145 16.9577C8.14665 16.831 8.14665 16.5775 8.27145 16.3239C8.39626 16.1972 8.64587 16.1972 8.77067 16.3239C9.64431 16.9577 10.7676 17.338 11.8908 17.2113C13.014 17.338 14.1373 16.9577 15.0109 16.3239C15.1357 16.1972 15.3853 16.1972 15.6349 16.3239C15.8846 16.4507 15.8846 16.7042 15.7598 16.9577ZM15.3853 14.2958C14.5117 14.2958 13.8877 13.5352 13.8877 12.7746C13.8877 12.0141 14.6365 11.2535 15.3853 11.2535C16.259 11.2535 16.883 12.0141 16.883 12.7746C17.0078 13.662 16.259 14.2958 15.3853 14.2958Z" />
</svg>
