<svg width="28" height="28" viewBox="0 0 28 28" fill="none" xmlns="http://www.w3.org/2000/svg">
<circle cx="14" cy="14" r="14" fill="#1DA1F2"/>
<path d="M10.7172 19.6882C16.3776 19.6882 19.4736 15.3113 19.4736 11.5156C19.4736 11.3913 19.4736 11.2675 19.4646 11.1443C20.0669 10.7377 20.5868 10.2342 21 9.6575C20.4383 9.88978 19.8425 10.0421 19.2324 10.1094C19.8747 9.75055 20.3557 9.18568 20.5854 8.52068C19.9813 8.85523 19.3204 9.09104 18.6312 9.21789C18.0493 8.64036 17.2366 8.31248 16.3873 8.31248C14.6974 8.31248 13.3068 9.61033 13.3068 11.1875C13.3068 11.4063 13.3336 11.6244 13.3866 11.8376C10.9134 11.7219 8.60593 10.63 7.04399 8.83653C6.23177 10.1415 6.65203 11.8327 7.99679 12.6708C7.50709 12.6573 7.02791 12.534 6.6 12.3113V12.3477C6.60041 13.7098 7.63849 14.8937 9.06899 15.1634C8.61595 15.2787 8.14049 15.2956 7.67941 15.2127C8.08157 16.3798 9.24126 17.1844 10.5546 17.2074C9.46506 18.0066 8.11837 18.4407 6.7326 18.4394C6.48773 18.439 6.24311 18.4251 6 18.398C7.40725 19.2408 9.04512 19.688 10.7172 19.686" fill="white"/>
</svg>
