<svg width="28" height="28" viewBox="0 0 28 28" fill="none" xmlns="http://www.w3.org/2000/svg">
<path d="M0 14C0 6.26803 6.26803 0 14 0C21.732 0 28 6.26803 28 14C28 21.732 21.732 28 14 28C6.26803 28 0 21.732 0 14Z" fill="#FF0000"/>
<path d="M21.5638 10.1866C21.382 9.50663 20.8464 8.97097 20.1663 8.7892C18.9338 8.45885 13.991 8.45885 13.991 8.45885C13.991 8.45885 9.04823 8.45885 7.81569 8.7892C7.13567 8.97097 6.60001 9.50663 6.41824 10.1866C6.08789 11.4192 6.08789 13.991 6.08789 13.991C6.08789 13.991 6.08789 16.5629 6.41824 17.7954C6.60001 18.4754 7.13567 19.0111 7.81569 19.1929C9.04823 19.5232 13.991 19.5232 13.991 19.5232C13.991 19.5232 18.9338 19.5232 20.1663 19.1929C20.8464 19.0111 21.382 18.4754 21.5638 17.7954C21.8941 16.5629 21.8941 13.991 21.8941 13.991C21.8941 13.991 21.8941 11.4192 21.5638 10.1866Z" fill="white"/>
<path d="M12.4102 16.362L16.5163 13.991L12.4102 11.6201V16.362Z" fill="#FF0000"/>
</svg>
