<svg width="20" height="20" viewBox="0 0 20 20" fill="none" xmlns="http://www.w3.org/2000/svg">
<path fill-rule="evenodd" clip-rule="evenodd" d="M17.0324 4.3762C17.8068 4.5832 18.4168 5.1932 18.6238 5.9676C19 7.3712 19 10.3 19 10.3C19 10.3 19 13.2288 18.6238 14.6324C18.4168 15.4068 17.8068 16.0168 17.0324 16.2238C15.6288 16.6 10 16.6 10 16.6C10 16.6 4.3712 16.6 2.9676 16.2238C2.1932 16.0168 1.5832 15.4068 1.3762 14.6324C1 13.2288 1 10.3 1 10.3C1 10.3 1 7.3712 1.3762 5.9676C1.5832 5.1932 2.1932 4.5832 2.9676 4.3762C4.3712 4 10 4 10 4C10 4 15.6288 4 17.0324 4.3762ZM12.876 10.3L8.20002 13V7.6L12.876 10.3Z" fill="currentcolor"/>
</svg>
