<svg width="24" height="24" viewBox="0 0 22 19" fill="none" xmlns="http://www.w3.org/2000/svg">
	<path fill="currentColor" d="M11.866 1L21.392 17.5C21.4798 17.652 21.526 17.8245 21.526 18C21.526 18.1755 21.4798 18.348 21.392 18.5C21.3042 18.652 21.178 18.7782 21.026 18.866C20.874 18.9538 20.7015 19 20.526 19H1.474C1.29847 19 1.12603 18.9538 0.974013 18.866C0.821997 18.7782 0.695763 18.652 0.607998 18.5C0.520232 18.348 0.474028 18.1755 0.47403 18C0.474031 17.8245 0.520237 17.652 0.608004 17.5L10.134 1C10.2218 0.847992 10.348 0.721766 10.5 0.634006C10.652 0.546245 10.8245 0.500044 11 0.500044C11.1755 0.500044 11.348 0.546245 11.5 0.634006C11.652 0.721766 11.7782 0.847992 11.866 1ZM3.206 17H18.794L11 3.5L3.206 17ZM10 14H12V16H10V14ZM10 7H12V12H10V7Z" />
</svg>
