<svg width="24" height="24" viewBox="0 0 24 24" fill="none" xmlns="http://www.w3.org/2000/svg">
<g clip-path="url(#clip0_8845_20165)">
<path d="M16.9999 21H6.99987C5.5831 21.0009 4.21172 20.5004 3.12856 19.5872C2.0454 18.674 1.32035 17.4069 1.08178 16.0103C0.843215 14.6138 1.10653 13.1779 1.82511 11.9569C2.54368 10.7359 3.67115 9.8085 5.00787 9.33902C4.96259 8.39268 5.10989 7.447 5.44083 6.55926C5.77178 5.67152 6.2795 4.8602 6.93322 4.17444C7.58694 3.48869 8.37307 2.94278 9.24398 2.56978C10.1149 2.19678 11.0525 2.00446 11.9999 2.00446C12.9473 2.00446 13.8849 2.19678 14.7558 2.56978C15.6267 2.94278 16.4128 3.48869 17.0665 4.17444C17.7203 4.8602 18.228 5.67152 18.5589 6.55926C18.8899 7.447 19.0372 8.39268 18.9919 9.33902C20.3286 9.8085 21.4561 10.7359 22.1746 11.9569C22.8932 13.1779 23.1565 14.6138 22.918 16.0103C22.6794 17.4069 21.9543 18.674 20.8712 19.5872C19.788 20.5004 18.4166 21.0009 16.9999 21ZM16.9999 9.00002C17.0001 8.33303 16.8669 7.67272 16.6081 7.05799C16.3493 6.44326 15.9701 5.88652 15.4928 5.42056C15.0156 4.9546 14.4499 4.58884 13.8292 4.34481C13.2084 4.10078 12.5451 3.98342 11.8783 3.99963C11.2115 4.01585 10.5547 4.16531 9.94657 4.43922C9.33841 4.71313 8.7912 5.10595 8.33716 5.59455C7.88312 6.08315 7.53143 6.65766 7.3028 7.28425C7.07417 7.91083 6.97321 8.57683 7.00587 9.24302L7.07587 10.731L5.67187 11.225C4.78238 11.5396 4.03263 12.1583 3.55497 12.9719C3.07732 13.7856 2.90249 14.7418 3.06133 15.6718C3.22018 16.6018 3.7025 17.4458 4.42314 18.0548C5.14378 18.6638 6.0564 18.9985 6.99987 19H16.9999C17.7362 18.9998 18.4582 18.7963 19.0863 18.412C19.7144 18.0277 20.2242 17.4774 20.5596 16.8219C20.895 16.1664 21.0429 15.431 20.9871 14.6968C20.9312 13.9625 20.6738 13.258 20.2432 12.6607C19.8126 12.0634 19.2254 11.5966 18.5464 11.3116C17.8675 11.0267 17.123 10.9347 16.3951 11.0458C15.6672 11.1569 14.9841 11.4668 14.421 11.9413C13.8579 12.4158 13.4367 13.0365 13.2039 13.735L11.3059 13.102C11.7047 11.9074 12.4692 10.8685 13.491 10.1323C14.5129 9.39616 15.7404 9.00003 16.9999 9.00002Z" fill="currentcolor"/>
</g>
<defs>
<clipPath id="clip0_8845_20165">
<rect width="24" height="24" fill="white"/>
</clipPath>
</defs>
</svg>
