<svg width="20" height="20" viewBox="0 0 20 20" fill="none" xmlns="http://www.w3.org/2000/svg">
<path fill-rule="evenodd" clip-rule="evenodd" d="M10 0C4.47717 0 0 4.47717 0 10C0 15.0306 3.71471 19.1937 8.55075 19.8958V20H10H11.6547V19.8637C16.3901 19.0752 20 14.9592 20 10C20 4.47717 15.5228 0 10 0ZM11.6547 19.8637V12.4991H13.7255L14 9.91427H11.6547L11.6582 8.62053C11.6582 7.94635 11.7223 7.58512 12.6907 7.58512H13.9853V5H11.9142C9.42635 5 8.55075 6.25393 8.55075 8.36266V9.91456H7V12.4994H8.55075V19.8958C9.02391 19.9644 9.5078 20 10 20C10.5637 20 11.1164 19.9534 11.6547 19.8637Z" fill="currentcolor"/>
</svg>
