<svg width="28" height="28" viewBox="0 0 28 28" fill="none" xmlns="http://www.w3.org/2000/svg">
<path d="M13.9805 28C6.24826 28 0 21.7517 0 14.0195C0 6.28731 6.28731 0 14.0195 0C21.7127 0 28 6.28731 28 14.0195C28 21.7517 21.7127 28 13.9805 28Z" fill="url(#paint0_radial_8951_20220)"/>
<path d="M20.9549 11.1322C20.9471 10.5443 20.8368 9.96235 20.6292 9.41224C20.4491 8.94823 20.174 8.52682 19.8215 8.17494C19.4691 7.82307 19.047 7.54846 18.5822 7.36867C18.0382 7.16482 17.4636 7.05459 16.8827 7.04269C16.1348 7.00931 15.8977 7 13.9992 7C12.1007 7 11.8574 7 11.1149 7.04269C10.5343 7.05468 9.95996 7.1649 9.41626 7.36867C8.9514 7.54833 8.52923 7.8229 8.17675 8.17479C7.82427 8.52668 7.54925 8.94815 7.36928 9.41224C7.16468 9.95487 7.05452 10.5284 7.04354 11.1081C7.01011 11.8555 7 12.0923 7 13.9876C7 15.8829 7 16.1251 7.04354 16.8671C7.0552 17.4476 7.16482 18.0204 7.36928 18.5645C7.54955 19.0284 7.82477 19.4497 8.17737 19.8015C8.52997 20.1532 8.95218 20.4277 9.41704 20.6073C9.95924 20.8193 10.5337 20.9374 11.1157 20.9565C11.8644 20.9899 12.1015 21 14 21C15.8985 21 16.1418 21 16.8843 20.9565C17.4651 20.9451 18.0398 20.8351 18.5837 20.6313C19.0484 20.4513 19.4704 20.1767 19.8228 19.8248C20.1753 19.473 20.4504 19.0517 20.6307 18.5878C20.8352 18.0445 20.9448 17.4717 20.9565 16.8903C20.9899 16.1437 21 15.907 21 14.0109C20.9984 12.1155 20.9984 11.8749 20.9549 11.1322ZM13.9946 17.5718C12.009 17.5718 10.4005 15.966 10.4005 13.9837C10.4005 12.0014 12.009 10.3956 13.9946 10.3956C14.9478 10.3956 15.8619 10.7736 16.5359 11.4465C17.21 12.1194 17.5886 13.0321 17.5886 13.9837C17.5886 14.9353 17.21 15.848 16.5359 16.5209C15.8619 17.1938 14.9478 17.5718 13.9946 17.5718ZM17.7317 11.0996C17.6216 11.0997 17.5126 11.0781 17.4108 11.0361C17.3091 10.9941 17.2167 10.9325 17.1388 10.8547C17.061 10.777 16.9993 10.6847 16.9572 10.5832C16.9151 10.4816 16.8935 10.3728 16.8936 10.2629C16.8936 10.1531 16.9153 10.0443 16.9574 9.94286C16.9995 9.84139 17.0612 9.7492 17.139 9.67154C17.2167 9.59389 17.3091 9.53229 17.4107 9.49026C17.5124 9.44823 17.6213 9.4266 17.7313 9.4266C17.8413 9.4266 17.9502 9.44823 18.0519 9.49026C18.1535 9.53229 18.2458 9.59389 18.3236 9.67154C18.4014 9.7492 18.4631 9.84139 18.5052 9.94286C18.5473 10.0443 18.569 10.1531 18.569 10.2629C18.569 10.7255 18.1942 11.0996 17.7317 11.0996Z" fill="white"/>
<path d="M13.9967 16.3146C15.2861 16.3146 16.3314 15.2711 16.3314 13.9838C16.3314 12.6966 15.2861 11.6531 13.9967 11.6531C12.7074 11.6531 11.6621 12.6966 11.6621 13.9838C11.6621 15.2711 12.7074 16.3146 13.9967 16.3146Z" fill="white"/>
<defs>
<radialGradient id="paint0_radial_8951_20220" cx="0" cy="0" r="1" gradientUnits="userSpaceOnUse" gradientTransform="translate(-0.70949 28.109) scale(51.7885)">
<stop stop-color="#F4EC55"/>
<stop offset="0.2412" stop-color="#E48242"/>
<stop offset="0.3463" stop-color="#D66863"/>
<stop offset="0.4422" stop-color="#CD4F74"/>
<stop offset="0.4888" stop-color="#C94379"/>
<stop offset="1" stop-color="#3F56A6"/>
</radialGradient>
</defs>
</svg>
