<svg width="28" height="28" viewBox="0 0 28 28" fill="none" xmlns="http://www.w3.org/2000/svg">
<circle cx="14" cy="14" r="14" fill="#0072B1"/>
<path d="M10.9391 10.7951H8.32227V18.6665H10.9391V10.7951Z" fill="white"/>
<path d="M9.64679 7C8.75148 7 8.1665 7.58861 8.1665 8.36009C8.1665 9.11536 8.73369 9.72021 9.61215 9.72021H9.62906C10.5415 9.72021 11.1095 9.11536 11.1095 8.36009C11.0925 7.58861 10.5416 7 9.64679 7Z" fill="white"/>
<path d="M17.3638 10.6101C15.9757 10.6101 15.354 11.3735 15.0058 11.9097V10.7952H12.3896C12.4243 11.5335 12.3896 18.6666 12.3896 18.6666H15.0058V14.2706C15.0058 14.0353 15.0227 13.8001 15.0921 13.6319C15.2809 13.162 15.7116 12.6753 16.4345 12.6753C17.3807 12.6753 17.7599 13.3974 17.7599 14.4551V18.6666H20.3761V14.1527C20.3761 11.7348 19.0852 10.6101 17.3638 10.6101Z" fill="white"/>
</svg>
