<svg width="24" height="24" viewBox="0 0 30 31" fill="none" xmlns="http://www.w3.org/2000/svg">
	<path fill="currentColor" d="M0.3645 9.28074L14.235 0.964741C14.4681 0.824865 14.7349 0.750977 15.0068 0.750977C15.2786 0.750977 15.5454 0.824865 15.7785 0.964741L29.6355 9.28224C29.7467 9.34886 29.8387 9.44316 29.9026 9.55594C29.9665 9.66872 30 9.79613 30 9.92574V28.9997C30 29.3976 29.842 29.7791 29.5607 30.0604C29.2794 30.3417 28.8978 30.4997 28.5 30.4997H1.5C1.10218 30.4997 0.720644 30.3417 0.43934 30.0604C0.158035 29.7791 1.65109e-08 29.3976 1.65109e-08 28.9997V9.92424C-2.71769e-05 9.79463 0.0335367 9.66722 0.0974182 9.55444C0.1613 9.44166 0.253318 9.34736 0.3645 9.28074ZM3 11.1992V27.4997H27V11.1977L15.006 3.99774L3 11.1977V11.1992ZM15.09 19.5467L23.034 12.8522L24.966 15.1472L15.111 23.4527L5.046 15.1577L6.954 12.8417L15.09 19.5467Z"/>
</svg>
