<svg width="24" height="24" viewBox="0 0 24 24" fill="none" xmlns="http://www.w3.org/2000/svg">
<path d="M12 12.1C13.1935 12.1 14.3381 12.5741 15.182 13.418C16.0259 14.2619 16.5 15.4065 16.5 16.6V22H14.7V16.6C14.7 15.9113 14.4369 15.2486 13.9644 14.7476C13.492 14.2465 12.8459 13.9449 12.1584 13.9045L12 13.9C11.3113 13.9 10.6486 14.1631 10.1476 14.6356C9.64649 15.108 9.3449 15.7541 9.3045 16.4416L9.3 16.6V22H7.5V16.6C7.5 15.4065 7.97411 14.2619 8.81802 13.418C9.66193 12.5741 10.8065 12.1 12 12.1ZM6.15 14.8C6.4011 14.8 6.645 14.8297 6.879 14.8846C6.72512 15.3427 6.63399 15.8195 6.6081 16.3021L6.6 16.6V16.6774C6.49655 16.6404 6.38894 16.6162 6.2796 16.6054L6.15 16.6C5.81441 16.6 5.49085 16.725 5.24242 16.9507C4.994 17.1763 4.83852 17.4864 4.8063 17.8204L4.8 17.95V22H3V17.95C3 17.1146 3.33187 16.3134 3.92261 15.7226C4.51335 15.1319 5.31457 14.8 6.15 14.8ZM17.85 14.8C18.6854 14.8 19.4866 15.1319 20.0774 15.7226C20.6681 16.3134 21 17.1146 21 17.95V22H19.2V17.95C19.2 17.6144 19.075 17.2908 18.8493 17.0424C18.6237 16.794 18.3136 16.6385 17.9796 16.6063L17.85 16.6C17.6925 16.6 17.5413 16.627 17.4 16.6765V16.6C17.4 16.0006 17.3028 15.4246 17.1219 14.8864C17.355 14.8297 17.5989 14.8 17.85 14.8ZM6.15 9.4C6.74674 9.4 7.31903 9.63705 7.74099 10.059C8.16295 10.481 8.4 11.0533 8.4 11.65C8.4 12.2467 8.16295 12.819 7.74099 13.241C7.31903 13.6629 6.74674 13.9 6.15 13.9C5.55326 13.9 4.98097 13.6629 4.55901 13.241C4.13705 12.819 3.9 12.2467 3.9 11.65C3.9 11.0533 4.13705 10.481 4.55901 10.059C4.98097 9.63705 5.55326 9.4 6.15 9.4ZM17.85 9.4C18.4467 9.4 19.019 9.63705 19.441 10.059C19.8629 10.481 20.1 11.0533 20.1 11.65C20.1 12.2467 19.8629 12.819 19.441 13.241C19.019 13.6629 18.4467 13.9 17.85 13.9C17.2533 13.9 16.681 13.6629 16.259 13.241C15.8371 12.819 15.6 12.2467 15.6 11.65C15.6 11.0533 15.8371 10.481 16.259 10.059C16.681 9.63705 17.2533 9.4 17.85 9.4ZM6.15 11.2C6.03065 11.2 5.91619 11.2474 5.8318 11.3318C5.74741 11.4162 5.7 11.5307 5.7 11.65C5.7 11.7693 5.74741 11.8838 5.8318 11.9682C5.91619 12.0526 6.03065 12.1 6.15 12.1C6.26935 12.1 6.38381 12.0526 6.4682 11.9682C6.55259 11.8838 6.6 11.7693 6.6 11.65C6.6 11.5307 6.55259 11.4162 6.4682 11.3318C6.38381 11.2474 6.26935 11.2 6.15 11.2ZM17.85 11.2C17.7307 11.2 17.6162 11.2474 17.5318 11.3318C17.4474 11.4162 17.4 11.5307 17.4 11.65C17.4 11.7693 17.4474 11.8838 17.5318 11.9682C17.6162 12.0526 17.7307 12.1 17.85 12.1C17.9693 12.1 18.0838 12.0526 18.1682 11.9682C18.2526 11.8838 18.3 11.7693 18.3 11.65C18.3 11.5307 18.2526 11.4162 18.1682 11.3318C18.0838 11.2474 17.9693 11.2 17.85 11.2ZM12 4C12.9548 4 13.8705 4.37928 14.5456 5.05442C15.2207 5.72955 15.6 6.64522 15.6 7.6C15.6 8.55478 15.2207 9.47045 14.5456 10.1456C13.8705 10.8207 12.9548 11.2 12 11.2C11.0452 11.2 10.1295 10.8207 9.45442 10.1456C8.77928 9.47045 8.4 8.55478 8.4 7.6C8.4 6.64522 8.77928 5.72955 9.45442 5.05442C10.1295 4.37928 11.0452 4 12 4ZM12 5.8C11.5226 5.8 11.0648 5.98964 10.7272 6.32721C10.3896 6.66477 10.2 7.12261 10.2 7.6C10.2 8.07739 10.3896 8.53523 10.7272 8.87279C11.0648 9.21036 11.5226 9.4 12 9.4C12.4774 9.4 12.9352 9.21036 13.2728 8.87279C13.6104 8.53523 13.8 8.07739 13.8 7.6C13.8 7.12261 13.6104 6.66477 13.2728 6.32721C12.9352 5.98964 12.4774 5.8 12 5.8Z" fill="currentcolor"/>
</svg>
