<svg width="28" height="28" viewBox="0 0 28 28" fill="none" xmlns="http://www.w3.org/2000/svg">
<g clip-path="url(#clip0_9223_20541)">
<path d="M13.9843 27.8148C21.6226 27.8148 27.8147 21.6227 27.8147 13.9843C27.8147 6.34595 21.6226 0.153839 13.9843 0.153839C6.34592 0.153839 0.153809 6.34595 0.153809 13.9843C0.153809 21.6227 6.34592 27.8148 13.9843 27.8148Z" fill="#FF4500"/>
<path d="M21.9997 14.1057C21.964 13.1537 21.1516 12.4102 20.1813 12.4425C19.7513 12.4572 19.3423 12.6306 19.0319 12.9214C17.6643 12.0045 16.0578 11.5019 14.4065 11.4667L15.1857 7.7787L17.7567 8.31071C17.8282 8.96015 18.4195 9.43041 19.0794 9.35974C19.7393 9.28933 20.2171 8.70741 20.1453 8.05797C20.0735 7.40853 19.4825 6.93827 18.8226 7.00894C18.4432 7.04703 18.1029 7.26456 17.915 7.58797L14.9708 7.00894C14.7709 6.9648 14.5707 7.08828 14.5259 7.28821C14.5259 7.2911 14.5259 7.2911 14.5259 7.29399L13.6391 11.3963C11.9669 11.4229 10.3397 11.9283 8.95422 12.851C8.2495 12.1987 7.13875 12.231 6.47593 12.9275C5.81311 13.621 5.84594 14.7142 6.55361 15.3665C6.69108 15.4929 6.84911 15.6017 7.0253 15.6781C7.01328 15.8515 7.01328 16.0249 7.0253 16.1983C7.0253 18.846 10.1605 21 14.0272 21C17.8939 21 21.0291 18.8489 21.0291 16.1983C21.0411 16.0249 21.0411 15.8515 21.0291 15.6781C21.6324 15.3812 22.0117 14.7699 21.9997 14.1057ZM9.98729 15.2901C9.98729 14.6378 10.5279 14.1057 11.1907 14.1057C11.8535 14.1057 12.3941 14.6378 12.3941 15.2901C12.3941 15.9424 11.8535 16.4744 11.1907 16.4744C10.5249 16.4684 9.98729 15.9424 9.98729 15.2901ZM16.9654 18.5872V18.5402C16.1115 19.172 15.0664 19.4952 13.9973 19.4513C12.9282 19.4954 11.8834 19.172 11.0292 18.5402C10.9157 18.4049 10.9365 18.2023 11.074 18.0907C11.1933 17.9937 11.3637 17.9937 11.4862 18.0907C12.2088 18.6108 13.0897 18.8754 13.9853 18.8342C14.8812 18.8812 15.765 18.6284 16.4964 18.1143C16.6278 17.9879 16.8427 17.9908 16.9713 18.1201C17.0997 18.2493 17.0968 18.4608 16.9654 18.5872ZM16.8013 16.5595C16.7805 16.5595 16.7626 16.5595 16.7415 16.5595L16.7506 16.5154C16.0877 16.5154 15.5472 15.9834 15.5472 15.3311C15.5472 14.6787 16.0877 14.1467 16.7506 14.1467C17.4134 14.1467 17.9539 14.6787 17.9539 15.3311C17.9806 15.9837 17.4641 16.533 16.8013 16.5595Z" fill="white"/>
</g>
<defs>
<clipPath id="clip0_9223_20541">
<rect width="28" height="28" fill="white"/>
</clipPath>
</defs>
</svg>
