<svg width="24" height="24" viewBox="0 0 24 24" fill="none" xmlns="http://www.w3.org/2000/svg">
<path d="M19.619 2H4.38095C3.0681 2 2 3.0681 2 4.38095V19.619C2 20.9319 3.0681 22 4.38095 22H19.619C20.9319 22 22 20.9319 22 19.619V4.38095C22 3.0681 20.9319 2 19.619 2ZM17.7171 10.7252C17.6079 10.7358 17.4983 10.7414 17.3886 10.7419C16.7962 10.742 16.213 10.5945 15.6919 10.3129C15.1707 10.0312 14.7279 9.6242 14.4033 9.12857V14.6224C14.4033 15.4255 14.1652 16.2105 13.719 16.8783C13.2728 17.546 12.6387 18.0664 11.8967 18.3738C11.1548 18.6811 10.3384 18.7615 9.5507 18.6048C8.76304 18.4482 8.03953 18.0614 7.47167 17.4936C6.9038 16.9257 6.51708 16.2022 6.3604 15.4145C6.20373 14.6269 6.28414 13.8105 6.59147 13.0685C6.89879 12.3265 7.41924 11.6924 8.08698 11.2462C8.75472 10.8 9.53977 10.5619 10.3429 10.5619C10.4276 10.5619 10.5105 10.5695 10.5938 10.5748V12.5757C10.5105 12.5657 10.4286 12.5505 10.3429 12.5505C9.79323 12.5505 9.26611 12.7688 8.87746 13.1575C8.48882 13.5461 8.27048 14.0732 8.27048 14.6229C8.27048 15.1725 8.48882 15.6996 8.87746 16.0883C9.26611 16.4769 9.79323 16.6952 10.3429 16.6952C11.4876 16.6952 12.4986 15.7933 12.4986 14.6486L12.5186 5.3181H14.4329C14.5203 6.14985 14.8974 6.9244 15.4981 7.50631C16.0988 8.08821 16.8849 8.44045 17.719 8.50143V10.7252" fill="currentcolor"/>
</svg>
