<svg width="32" height="32" viewBox="0 0 32 32" fill="none" xmlns="http://www.w3.org/2000/svg">
<path d="M15.9998 2.66667C8.63984 2.66667 2.6665 8.64 2.6665 16C2.6665 23.36 8.63984 29.3333 15.9998 29.3333C23.3598 29.3333 29.3332 23.36 29.3332 16C29.3332 8.64 23.3598 2.66667 15.9998 2.66667ZM14.6665 26.5733C9.39984 25.92 5.33317 21.44 5.33317 16C5.33317 15.1733 5.43984 14.3867 5.61317 13.6133L11.9998 20V21.3333C11.9998 22.8 13.1998 24 14.6665 24V26.5733ZM23.8665 23.1867C23.5198 22.1067 22.5332 21.3333 21.3332 21.3333H19.9998V17.3333C19.9998 16.6 19.3998 16 18.6665 16H10.6665V13.3333H13.3332C14.0665 13.3333 14.6665 12.7333 14.6665 12V9.33334H17.3332C18.7998 9.33334 19.9998 8.13334 19.9998 6.66667V6.12001C23.9065 7.70667 26.6665 11.5333 26.6665 16C26.6665 18.7733 25.5998 21.2933 23.8665 23.1867Z" fill="currentcolor"/>
</svg>
