<svg width="1303" height="775" viewBox="0 0 1303 775" fill="none" xmlns="http://www.w3.org/2000/svg">
<rect width="1303" height="775" fill="#34404B"/>
<path d="M130.024 533L117.688 500.984H109.144L96.76 533H104.248L106.264 527.48H120.568L122.584 533H130.024ZM118.696 521.576H108.088L113.416 506.888L118.696 521.576ZM139.488 533.576C142.032 533.576 143.664 532.904 144.576 532.088L143.28 527.48C142.944 527.816 142.08 528.152 141.168 528.152C139.824 528.152 139.056 527.048 139.056 525.608V515.144H143.76V509.816H139.056V503.48H132.912V509.816H129.072V515.144H132.912V527.24C132.912 531.368 135.216 533.576 139.488 533.576ZM154.026 533V500.984H147.93V533H154.026ZM180.087 533V518.024C180.087 511.352 175.239 509.24 169.959 509.24C166.311 509.24 162.663 510.392 159.831 512.888L162.135 516.968C164.103 515.144 166.407 514.232 168.903 514.232C171.975 514.232 173.991 515.768 173.991 518.12V521.336C172.455 519.464 169.719 518.504 166.647 518.504C162.951 518.504 158.583 520.472 158.583 525.896C158.583 531.08 162.951 533.576 166.647 533.576C169.671 533.576 172.407 532.472 173.991 530.6V533H180.087ZM173.991 527.432C172.983 528.776 171.063 529.448 169.095 529.448C166.695 529.448 164.727 528.2 164.727 526.04C164.727 523.832 166.695 522.536 169.095 522.536C171.063 522.536 172.983 523.208 173.991 524.552V527.432ZM184.117 529.976C186.565 532.232 190.453 533.576 194.485 533.576C200.917 533.576 204.517 530.408 204.517 526.136C204.517 520.376 199.189 519.32 195.205 518.552C192.613 518.024 190.789 517.496 190.789 516.056C190.789 514.712 192.229 513.896 194.437 513.896C197.269 513.896 199.909 515.096 201.301 516.584L203.701 512.408C201.445 510.584 198.325 509.24 194.389 509.24C188.293 509.24 184.885 512.648 184.885 516.536C184.885 522.056 190.021 523.016 194.005 523.784C196.645 524.312 198.661 524.888 198.661 526.52C198.661 527.96 197.413 528.872 194.773 528.872C191.893 528.872 188.437 527.288 186.757 525.704L184.117 529.976ZM234.058 533C244.09 533 251.05 526.664 251.05 517.016C251.05 507.368 244.09 500.984 234.058 500.984H221.434V533H234.058ZM228.25 506.984H234.058C240.634 506.984 244.09 511.352 244.09 517.016C244.09 522.44 240.394 527 234.058 527H228.25V506.984ZM254.255 521.384C254.255 528.824 259.583 533.576 266.639 533.576C270.239 533.576 273.839 532.52 276.191 530.36L273.503 526.424C272.015 527.864 269.471 528.728 267.311 528.728C263.375 528.728 261.023 526.28 260.639 523.352H277.871V522.008C277.871 514.424 273.167 509.24 266.255 509.24C259.199 509.24 254.255 514.664 254.255 521.384ZM266.255 514.088C270.287 514.088 271.823 517.016 271.967 519.224H260.543C260.831 516.92 262.463 514.088 266.255 514.088ZM280.258 529.976C282.706 532.232 286.594 533.576 290.626 533.576C297.058 533.576 300.658 530.408 300.658 526.136C300.658 520.376 295.33 519.32 291.346 518.552C288.754 518.024 286.93 517.496 286.93 516.056C286.93 514.712 288.37 513.896 290.578 513.896C293.41 513.896 296.05 515.096 297.442 516.584L299.842 512.408C297.586 510.584 294.466 509.24 290.53 509.24C284.434 509.24 281.026 512.648 281.026 516.536C281.026 522.056 286.162 523.016 290.146 523.784C292.786 524.312 294.802 524.888 294.802 526.52C294.802 527.96 293.554 528.872 290.914 528.872C288.034 528.872 284.578 527.288 282.898 525.704L280.258 529.976ZM308.173 506.408C310.189 506.408 311.821 504.776 311.821 502.76C311.821 500.744 310.189 499.112 308.173 499.112C306.205 499.112 304.525 500.744 304.525 502.76C304.525 504.776 306.205 506.408 308.173 506.408ZM311.245 533V509.816H305.149V533H311.245ZM316.81 538.952C319.69 541.496 322.81 542.408 326.794 542.408C332.506 542.408 339.322 540.248 339.322 531.416V509.816H333.178V512.792C331.306 510.44 328.81 509.24 326.026 509.24C320.17 509.24 315.802 513.464 315.802 521.048C315.802 528.776 320.218 532.856 326.026 532.856C328.858 532.856 331.354 531.512 333.178 529.208V531.56C333.178 536.12 329.722 537.416 326.794 537.416C323.866 537.416 321.418 536.6 319.546 534.536L316.81 538.952ZM333.178 524.792C332.17 526.28 329.962 527.432 327.946 527.432C324.49 527.432 322.09 525.032 322.09 521.048C322.09 517.064 324.49 514.664 327.946 514.664C329.962 514.664 332.17 515.768 333.178 517.304V524.792ZM367.112 533V516.632C367.112 512.12 364.664 509.24 359.576 509.24C355.784 509.24 352.952 511.064 351.464 512.84V509.816H345.368V533H351.464V517.4C352.472 516.008 354.344 514.664 356.744 514.664C359.336 514.664 361.016 515.768 361.016 518.984V533H367.112ZM383.382 528.488C386.406 531.512 390.822 533.576 396.966 533.576C405.606 533.576 409.782 529.16 409.782 523.304C409.782 516.2 403.062 514.616 397.782 513.416C394.086 512.552 391.398 511.88 391.398 509.72C391.398 507.8 393.03 506.456 396.102 506.456C399.222 506.456 402.678 507.56 405.27 509.96L409.062 504.968C405.894 502.04 401.67 500.504 396.582 500.504C389.046 500.504 384.438 504.824 384.438 510.152C384.438 517.304 391.158 518.744 396.39 519.944C400.086 520.808 402.87 521.624 402.87 524.024C402.87 525.848 401.046 527.624 397.302 527.624C392.886 527.624 389.382 525.656 387.126 523.304L383.382 528.488ZM413.083 542.072C413.851 542.264 415.387 542.408 416.107 542.408C420.091 542.312 423.163 541.16 424.891 536.792L435.787 509.816H429.211L423.163 525.944L417.115 509.816H410.587L419.995 533.336L419.131 535.304C418.555 536.552 417.499 536.984 415.915 536.984C415.339 536.984 414.523 536.84 413.995 536.6L413.083 542.072ZM436.492 529.976C438.94 532.232 442.828 533.576 446.86 533.576C453.292 533.576 456.892 530.408 456.892 526.136C456.892 520.376 451.564 519.32 447.58 518.552C444.988 518.024 443.164 517.496 443.164 516.056C443.164 514.712 444.604 513.896 446.812 513.896C449.644 513.896 452.284 515.096 453.676 516.584L456.076 512.408C453.82 510.584 450.7 509.24 446.764 509.24C440.668 509.24 437.26 512.648 437.26 516.536C437.26 522.056 442.396 523.016 446.38 523.784C449.02 524.312 451.036 524.888 451.036 526.52C451.036 527.96 449.788 528.872 447.148 528.872C444.268 528.872 440.812 527.288 439.132 525.704L436.492 529.976ZM469.159 533.576C471.703 533.576 473.335 532.904 474.247 532.088L472.951 527.48C472.615 527.816 471.751 528.152 470.839 528.152C469.495 528.152 468.727 527.048 468.727 525.608V515.144H473.431V509.816H468.727V503.48H462.583V509.816H458.743V515.144H462.583V527.24C462.583 531.368 464.887 533.576 469.159 533.576ZM476.114 521.384C476.114 528.824 481.442 533.576 488.498 533.576C492.098 533.576 495.698 532.52 498.05 530.36L495.362 526.424C493.874 527.864 491.33 528.728 489.17 528.728C485.234 528.728 482.882 526.28 482.498 523.352H499.73V522.008C499.73 514.424 495.026 509.24 488.114 509.24C481.058 509.24 476.114 514.664 476.114 521.384ZM488.114 514.088C492.146 514.088 493.682 517.016 493.826 519.224H482.402C482.69 516.92 484.322 514.088 488.114 514.088ZM539.029 533V516.248C539.029 511.496 536.485 509.24 532.213 509.24C528.661 509.24 525.589 511.352 524.245 513.464C523.381 510.824 521.221 509.24 517.813 509.24C514.261 509.24 511.189 511.448 510.229 512.84V509.816H504.133V533H510.229V517.4C511.141 516.104 512.917 514.664 515.029 514.664C517.525 514.664 518.485 516.2 518.485 518.36V533H524.629V517.352C525.493 516.104 527.269 514.664 529.429 514.664C531.925 514.664 532.885 516.2 532.885 518.36V533H539.029Z" fill="white"/>
<path d="M184.26 419.099H209.401L167.717 310H138.846L97 419.099H122.302L129.114 400.289H177.448L184.26 419.099ZM153.281 330.119L171.123 380.17H135.278L153.281 330.119Z" fill="url(#paint0_linear_5_341)"/>
<path d="M234.079 421.062C242.676 421.062 248.19 418.772 251.272 415.992L246.893 400.289C245.757 401.434 242.838 402.579 239.756 402.579C235.215 402.579 232.62 398.817 232.62 393.91V358.252H248.515V340.096H232.62V318.506H211.859V340.096H198.883V358.252H211.859V399.471C211.859 413.538 219.644 421.062 234.079 421.062Z" fill="url(#paint1_linear_5_341)"/>
<path d="M255.309 419.099H275.908V310H255.309V419.099Z" fill="url(#paint2_linear_5_341)"/>
<path d="M336.07 419.099H356.669V368.066C356.669 345.331 340.287 338.134 322.446 338.134C310.119 338.134 297.793 342.059 288.223 350.565L296.008 364.468C302.658 358.252 310.444 355.145 318.878 355.145C329.258 355.145 336.07 360.379 336.07 368.394V379.353C330.88 372.973 321.635 369.702 311.255 369.702C298.766 369.702 284.006 376.408 284.006 394.891C284.006 412.557 298.766 421.062 311.255 421.062C321.473 421.062 330.718 417.3 336.07 410.921V419.099ZM336.07 400.126C332.664 404.705 326.177 406.995 319.527 406.995C311.417 406.995 304.767 402.743 304.767 395.382C304.767 387.858 311.417 383.442 319.527 383.442C326.177 383.442 332.664 385.732 336.07 390.312V400.126Z" fill="url(#paint3_linear_5_341)"/>
<path d="M362.99 408.795C371.261 416.482 384.399 421.062 398.023 421.062C419.758 421.062 431.922 410.267 431.922 395.709C431.922 376.081 413.919 372.483 400.456 369.866C391.698 368.066 385.535 366.267 385.535 361.36C385.535 356.78 390.4 354 397.861 354C407.431 354 416.351 358.089 421.055 363.159L429.165 348.929C421.542 342.713 410.999 338.134 397.699 338.134C377.1 338.134 365.585 349.747 365.585 362.996C365.585 381.806 382.939 385.077 396.402 387.695C405.322 389.494 412.134 391.457 412.134 397.018C412.134 401.925 407.917 405.033 398.997 405.033C389.265 405.033 377.587 399.635 371.91 394.237L362.99 408.795Z" fill="url(#paint4_linear_5_341)"/>
<defs>
<linearGradient id="paint0_linear_5_341" x1="225.762" y1="366.234" x2="326.729" y2="434.604" gradientUnits="userSpaceOnUse">
<stop stop-color="#FC5B08"/>
<stop offset="1" stop-color="#00ADE6"/>
</linearGradient>
<linearGradient id="paint1_linear_5_341" x1="225.762" y1="366.234" x2="326.729" y2="434.604" gradientUnits="userSpaceOnUse">
<stop stop-color="#FC5B08"/>
<stop offset="1" stop-color="#00ADE6"/>
</linearGradient>
<linearGradient id="paint2_linear_5_341" x1="225.762" y1="366.234" x2="326.729" y2="434.604" gradientUnits="userSpaceOnUse">
<stop stop-color="#FC5B08"/>
<stop offset="1" stop-color="#00ADE6"/>
</linearGradient>
<linearGradient id="paint3_linear_5_341" x1="225.762" y1="366.234" x2="326.729" y2="434.604" gradientUnits="userSpaceOnUse">
<stop stop-color="#FC5B08"/>
<stop offset="1" stop-color="#00ADE6"/>
</linearGradient>
<linearGradient id="paint4_linear_5_341" x1="225.762" y1="366.234" x2="326.729" y2="434.604" gradientUnits="userSpaceOnUse">
<stop stop-color="#FC5B08"/>
<stop offset="1" stop-color="#00ADE6"/>
</linearGradient>
</defs>
</svg>
