<svg width="20" height="16" viewBox="0 0 20 16" fill="none" xmlns="http://www.w3.org/2000/svg">
    <path d="M18.18 8.9936V14.4H19.089V16H0.908999V14.4H1.818V8.9936C1.25839 8.66487 0.799658 8.21964 0.482515 7.69741C0.165371 7.17519 -0.000370629 6.59213 6.22312e-07 6C6.22312e-07 5.3384 0.203616 4.7008 0.575397 4.1576L3.0406 0.4C3.12038 0.278388 3.23513 0.177399 3.37331 0.107185C3.51149 0.0369703 3.66824 3.56738e-06 3.82779 0H16.1711C16.3306 3.56738e-06 16.4874 0.0369703 16.6256 0.107185C16.7638 0.177399 16.8785 0.278388 16.9583 0.4L19.4144 4.1456C19.9567 4.9383 20.131 5.88443 19.9011 6.78731C19.6712 7.6902 19.0548 8.48038 18.18 8.9936ZM16.362 9.5776C15.737 9.63931 15.1042 9.57323 14.513 9.38452C13.9218 9.19581 13.388 8.88956 12.9532 8.4896C12.5716 8.84086 12.1131 9.12042 11.6054 9.3114C11.0976 9.50239 10.5512 9.60083 9.99899 9.6008C9.44694 9.60104 8.90056 9.50284 8.39281 9.31214C7.88507 9.12143 7.42649 8.84217 7.04474 8.4912C6.6099 8.89101 6.07609 9.19712 5.48486 9.38569C4.89362 9.57426 4.26092 9.64021 3.636 9.5784V14.4H16.362V9.5784V9.5776ZM4.3532 1.6L2.1416 4.9704C1.92669 5.43772 1.92024 5.95922 2.12354 6.43054C2.32684 6.90187 2.72489 7.28823 3.23802 7.51231C3.75115 7.7364 4.34151 7.78166 4.89094 7.63905C5.44037 7.49644 5.90834 7.17648 6.20119 6.7432C6.5057 6.0736 7.58287 6.0736 7.88829 6.7432C8.05673 7.11473 8.34788 7.43328 8.72414 7.65768C9.1004 7.88209 9.54447 8.00204 9.99899 8.00204C10.4535 8.00204 10.8976 7.88209 11.2738 7.65768C11.6501 7.43328 11.9412 7.11473 12.1097 6.7432C12.4142 6.0736 13.4914 6.0736 13.7968 6.7432C13.9148 6.99876 14.0915 7.23008 14.3159 7.42262C14.5404 7.61516 14.8077 7.76476 15.101 7.86202C15.3943 7.95927 15.7072 8.00208 16.0202 7.98775C16.3332 7.97342 16.6395 7.90226 16.9197 7.77874C17.2 7.65523 17.4482 7.48203 17.6487 7.27003C17.8492 7.05803 17.9978 6.81181 18.085 6.54686C18.1722 6.28191 18.1961 6.00394 18.1554 5.73044C18.1146 5.45694 18.0101 5.19381 17.8482 4.9576L15.6439 1.6H4.3541H4.3532Z"
          fill="currentColor"/>
</svg>
