<svg width="18" height="18" viewBox="0 0 18 18" fill="none" xmlns="http://www.w3.org/2000/svg">
<path fill="currentColor" d="M9 8.1C10.1935 8.1 11.3381 8.57411 12.182 9.41802C13.0259 10.2619 13.5 11.4065 13.5 12.6V18H11.7V12.6C11.7 11.9113 11.4369 11.2486 10.9644 10.7476C10.492 10.2465 9.8459 9.9449 9.1584 9.9045L9 9.9C8.31131 9.89996 7.64864 10.1631 7.14756 10.6356C6.64649 11.108 6.3449 11.7541 6.3045 12.4416L6.3 12.6V18H4.5V12.6C4.5 11.4065 4.97411 10.2619 5.81802 9.41802C6.66193 8.57411 7.80653 8.1 9 8.1ZM3.15 10.8C3.4011 10.8 3.645 10.8297 3.879 10.8846C3.72512 11.3427 3.63399 11.8195 3.6081 12.3021L3.6 12.6V12.6774C3.49655 12.6404 3.38894 12.6162 3.2796 12.6054L3.15 12.6C2.81441 12.6 2.49085 12.725 2.24242 12.9507C1.994 13.1763 1.83852 13.4864 1.8063 13.8204L1.8 13.95V18H0V13.95C0 13.1146 0.331874 12.3134 0.922614 11.7226C1.51335 11.1319 2.31457 10.8 3.15 10.8ZM14.85 10.8C15.6854 10.8 16.4866 11.1319 17.0774 11.7226C17.6681 12.3134 18 13.1146 18 13.95V18H16.2V13.95C16.2 13.6144 16.075 13.2908 15.8493 13.0424C15.6237 12.794 15.3136 12.6385 14.9796 12.6063L14.85 12.6C14.6925 12.6 14.5413 12.627 14.4 12.6765V12.6C14.4 12.0006 14.3028 11.4246 14.1219 10.8864C14.355 10.8297 14.5989 10.8 14.85 10.8ZM3.15 5.4C3.74674 5.4 4.31903 5.63705 4.74099 6.05901C5.16295 6.48097 5.4 7.05326 5.4 7.65C5.4 8.24674 5.16295 8.81903 4.74099 9.24099C4.31903 9.66295 3.74674 9.9 3.15 9.9C2.55326 9.9 1.98097 9.66295 1.55901 9.24099C1.13705 8.81903 0.9 8.24674 0.9 7.65C0.9 7.05326 1.13705 6.48097 1.55901 6.05901C1.98097 5.63705 2.55326 5.4 3.15 5.4ZM14.85 5.4C15.4467 5.4 16.019 5.63705 16.441 6.05901C16.8629 6.48097 17.1 7.05326 17.1 7.65C17.1 8.24674 16.8629 8.81903 16.441 9.24099C16.019 9.66295 15.4467 9.9 14.85 9.9C14.2533 9.9 13.681 9.66295 13.259 9.24099C12.8371 8.81903 12.6 8.24674 12.6 7.65C12.6 7.05326 12.8371 6.48097 13.259 6.05901C13.681 5.63705 14.2533 5.4 14.85 5.4ZM3.15 7.2C3.03065 7.2 2.91619 7.24741 2.8318 7.3318C2.74741 7.41619 2.7 7.53065 2.7 7.65C2.7 7.76935 2.74741 7.88381 2.8318 7.9682C2.91619 8.05259 3.03065 8.1 3.15 8.1C3.26935 8.1 3.38381 8.05259 3.4682 7.9682C3.55259 7.88381 3.6 7.76935 3.6 7.65C3.6 7.53065 3.55259 7.41619 3.4682 7.3318C3.38381 7.24741 3.26935 7.2 3.15 7.2ZM14.85 7.2C14.7307 7.2 14.6162 7.24741 14.5318 7.3318C14.4474 7.41619 14.4 7.53065 14.4 7.65C14.4 7.76935 14.4474 7.88381 14.5318 7.9682C14.6162 8.05259 14.7307 8.1 14.85 8.1C14.9693 8.1 15.0838 8.05259 15.1682 7.9682C15.2526 7.88381 15.3 7.76935 15.3 7.65C15.3 7.53065 15.2526 7.41619 15.1682 7.3318C15.0838 7.24741 14.9693 7.2 14.85 7.2ZM9 0C9.95478 0 10.8705 0.379285 11.5456 1.05442C12.2207 1.72955 12.6 2.64522 12.6 3.6C12.6 4.55478 12.2207 5.47045 11.5456 6.14558C10.8705 6.82072 9.95478 7.2 9 7.2C8.04522 7.2 7.12955 6.82072 6.45442 6.14558C5.77928 5.47045 5.4 4.55478 5.4 3.6C5.4 2.64522 5.77928 1.72955 6.45442 1.05442C7.12955 0.379285 8.04522 0 9 0ZM9 1.8C8.52261 1.8 8.06477 1.98964 7.72721 2.32721C7.38964 2.66477 7.2 3.12261 7.2 3.6C7.2 4.07739 7.38964 4.53523 7.72721 4.87279C8.06477 5.21036 8.52261 5.4 9 5.4C9.47739 5.4 9.93523 5.21036 10.2728 4.87279C10.6104 4.53523 10.8 4.07739 10.8 3.6C10.8 3.12261 10.6104 2.66477 10.2728 2.32721C9.93523 1.98964 9.47739 1.8 9 1.8Z"/>
</svg>
