<svg width="22" height="20" viewBox="0 0 22 20" fill="none" xmlns="http://www.w3.org/2000/svg">
    <g clip-path="url(#clip0_7528_17587)">
        <path d="M10.9997 9.08325C12.2153 9.08325 13.381 9.56614 14.2406 10.4257C15.1001 11.2852 15.583 12.451 15.583 13.6666V19.1666H13.7497V13.6666C13.7497 12.9651 13.4817 12.2902 13.0005 11.7798C12.5193 11.2695 11.8612 10.9623 11.161 10.9212L10.9997 10.9166C10.2982 10.9165 9.62329 11.1846 9.11294 11.6658C8.60258 12.147 8.29541 12.805 8.25426 13.5053L8.24967 13.6666V19.1666H6.41634V13.6666C6.41634 12.451 6.89923 11.2852 7.75877 10.4257C8.61831 9.56614 9.7841 9.08325 10.9997 9.08325ZM5.04134 11.8333C5.29709 11.8333 5.54551 11.8635 5.78384 11.9194C5.62711 12.386 5.5343 12.8717 5.50792 13.3632L5.49967 13.6666V13.7454C5.39431 13.7077 5.28471 13.6831 5.17334 13.6721L5.04134 13.6666C4.69953 13.6666 4.36998 13.7939 4.11696 14.0237C3.86393 14.2535 3.70557 14.5694 3.67276 14.9096L3.66634 15.0416V19.1666H1.83301V15.0416C1.83301 14.1907 2.17103 13.3746 2.77271 12.773C3.37439 12.1713 4.19044 11.8333 5.04134 11.8333ZM16.958 11.8333C17.8089 11.8333 18.625 12.1713 19.2266 12.773C19.8283 13.3746 20.1663 14.1907 20.1663 15.0416V19.1666H18.333V15.0416C18.333 14.6998 18.2057 14.3702 17.9759 14.1172C17.7461 13.8642 17.4302 13.7058 17.09 13.673L16.958 13.6666C16.7976 13.6666 16.6436 13.6941 16.4997 13.7445V13.6666C16.4997 13.0561 16.4007 12.4694 16.2164 11.9213C16.4538 11.8635 16.7023 11.8333 16.958 11.8333ZM5.04134 6.33325C5.64913 6.33325 6.23202 6.57469 6.66179 7.00447C7.09157 7.43424 7.33301 8.01713 7.33301 8.62492C7.33301 9.23271 7.09157 9.8156 6.66179 10.2454C6.23202 10.6751 5.64913 10.9166 5.04134 10.9166C4.43355 10.9166 3.85066 10.6751 3.42089 10.2454C2.99112 9.8156 2.74967 9.23271 2.74967 8.62492C2.74967 8.01713 2.99112 7.43424 3.42089 7.00447C3.85066 6.57469 4.43355 6.33325 5.04134 6.33325ZM16.958 6.33325C17.5658 6.33325 18.1487 6.57469 18.5785 7.00447C19.0082 7.43424 19.2497 8.01713 19.2497 8.62492C19.2497 9.23271 19.0082 9.8156 18.5785 10.2454C18.1487 10.6751 17.5658 10.9166 16.958 10.9166C16.3502 10.9166 15.7673 10.6751 15.3376 10.2454C14.9078 9.8156 14.6663 9.23271 14.6663 8.62492C14.6663 8.01713 14.9078 7.43424 15.3376 7.00447C15.7673 6.57469 16.3502 6.33325 16.958 6.33325ZM5.04134 8.16659C4.91978 8.16659 4.8032 8.21487 4.71725 8.30083C4.6313 8.38678 4.58301 8.50336 4.58301 8.62492C4.58301 8.74648 4.6313 8.86306 4.71725 8.94901C4.8032 9.03496 4.91978 9.08325 5.04134 9.08325C5.1629 9.08325 5.27948 9.03496 5.36543 8.94901C5.45139 8.86306 5.49967 8.74648 5.49967 8.62492C5.49967 8.50336 5.45139 8.38678 5.36543 8.30083C5.27948 8.21487 5.1629 8.16659 5.04134 8.16659ZM16.958 8.16659C16.8365 8.16659 16.7199 8.21487 16.6339 8.30083C16.548 8.38678 16.4997 8.50336 16.4997 8.62492C16.4997 8.74648 16.548 8.86306 16.6339 8.94901C16.7199 9.03496 16.8365 9.08325 16.958 9.08325C17.0796 9.08325 17.1961 9.03496 17.2821 8.94901C17.3681 8.86306 17.4163 8.74648 17.4163 8.62492C17.4163 8.50336 17.3681 8.38678 17.2821 8.30083C17.1961 8.21487 17.0796 8.16659 16.958 8.16659ZM10.9997 0.833252C11.9721 0.833252 12.9048 1.21956 13.5924 1.90719C14.28 2.59483 14.6663 3.52746 14.6663 4.49992C14.6663 5.47238 14.28 6.40501 13.5924 7.09264C12.9048 7.78028 11.9721 8.16659 10.9997 8.16659C10.0272 8.16659 9.09458 7.78028 8.40695 7.09264C7.71932 6.40501 7.33301 5.47238 7.33301 4.49992C7.33301 3.52746 7.71932 2.59483 8.40695 1.90719C9.09458 1.21956 10.0272 0.833252 10.9997 0.833252ZM10.9997 2.66659C10.5134 2.66659 10.0471 2.85974 9.70331 3.20356C9.3595 3.54737 9.16634 4.01369 9.16634 4.49992C9.16634 4.98615 9.3595 5.45246 9.70331 5.79628C10.0471 6.1401 10.5134 6.33325 10.9997 6.33325C11.4859 6.33325 11.9522 6.1401 12.296 5.79628C12.6399 5.45246 12.833 4.98615 12.833 4.49992C12.833 4.01369 12.6399 3.54737 12.296 3.20356C11.9522 2.85974 11.4859 2.66659 10.9997 2.66659Z"
              fill="currentColor"/>
    </g>
    <defs>
        <clipPath id="clip0_7528_17587">
            <rect width="22" height="20" fill="currentColor"/>
        </clipPath>
    </defs>
</svg>
