<svg width="18" height="18" viewBox="0 0 18 18" fill="none" xmlns="http://www.w3.org/2000/svg">
	<path d="M13.1665 3.99999H17.3332V5.66666H15.6665V16.5C15.6665 16.721 15.5787 16.933 15.4224 17.0892C15.2661 17.2455 15.0542 17.3333 14.8332 17.3333H3.1665C2.94549 17.3333 2.73353 17.2455 2.57725 17.0892C2.42097 16.933 2.33317 16.721 2.33317 16.5V5.66666H0.666504V3.99999H4.83317V1.49999C4.83317 1.27898 4.92097 1.06701 5.07725 0.910734C5.23353 0.754454 5.44549 0.666656 5.6665 0.666656H12.3332C12.5542 0.666656 12.7661 0.754454 12.9224 0.910734C13.0787 1.06701 13.1665 1.27898 13.1665 1.49999V3.99999ZM13.9998 5.66666H3.99984V15.6667H13.9998V5.66666ZM6.49984 2.33332V3.99999H11.4998V2.33332H6.49984Z" fill="currentColor"/>
</svg>
