<svg width="24" height="24" viewBox="0 0 24 24" fill="none" xmlns="http://www.w3.org/2000/svg">
<path fill="currentColor" d="M21.582 7.18506C21.3516 6.32274 20.6758 5.64771 19.8125 5.4175C18.2539 5 12 5 12 5C12 5 5.74609 5 4.18359 5.4175C3.32031 5.64771 2.64844 6.32274 2.41406 7.18506C2 8.74582 2 12 2 12C2 12 2 15.2542 2.41797 16.8149C2.64844 17.6773 3.32812 18.3523 4.1875 18.5825C5.74609 19 12 19 12 19C12 19 18.2539 19 19.8164 18.5825C20.6797 18.3523 21.3555 17.6734 21.5859 16.8149C22 15.2542 22 12 22 12C22 12 22 8.74582 21.582 7.18506ZM10.0117 14.9889V9.01115L15.1914 11.9766L10.0117 14.9889Z" />
</svg>
