<svg width="22" height="19" viewBox="0 0 22 19" fill="none" xmlns="http://www.w3.org/2000/svg">
    <g clip-path="url(#clip0_7528_17574)">
        <path d="M2.74967 2.375H19.2497C19.4928 2.375 19.7259 2.45841 19.8979 2.60687C20.0698 2.75534 20.1663 2.9567 20.1663 3.16667V15.8333C20.1663 16.0433 20.0698 16.2447 19.8979 16.3931C19.7259 16.5416 19.4928 16.625 19.2497 16.625H2.74967C2.50656 16.625 2.2734 16.5416 2.10149 16.3931C1.92958 16.2447 1.83301 16.0433 1.83301 15.8333V3.16667C1.83301 2.9567 1.92958 2.75534 2.10149 2.60687C2.2734 2.45841 2.50656 2.375 2.74967 2.375ZM18.333 5.73008L11.0657 11.3509L3.66634 5.71267V15.0417H18.333V5.73008ZM4.13476 3.95833L11.0556 9.23242L17.8765 3.95833H4.13476Z"
              fill="currentColor"/>
    </g>
    <defs>
        <clipPath id="clip0_7528_17574">
            <rect width="22" height="19" fill="currentColor"/>
        </clipPath>
    </defs>
</svg>