<svg width="24" height="24" viewBox="0 0 24 24" fill="none" xmlns="http://www.w3.org/2000/svg">
<path d="M20.95 8.324C20.9399 7.56662 20.7981 6.81678 20.531 6.108C20.2993 5.51015 19.9455 4.9672 19.4922 4.51383C19.0388 4.06046 18.4958 3.70665 17.898 3.475C17.1983 3.21236 16.4592 3.07034 15.712 3.055C14.75 3.012 14.445 3 12.003 3C9.561 3 9.248 3 8.293 3.055C7.54616 3.07045 6.80735 3.21247 6.108 3.475C5.51006 3.70649 4.96702 4.06024 4.51363 4.51363C4.06024 4.96702 3.70649 5.51006 3.475 6.108C3.21183 6.80713 3.07012 7.54611 3.056 8.293C3.013 9.256 3 9.561 3 12.003C3 14.445 3 14.757 3.056 15.713C3.071 16.461 3.212 17.199 3.475 17.9C3.70688 18.4978 4.0609 19.0406 4.51444 19.4938C4.96798 19.947 5.51106 20.3006 6.109 20.532C6.80643 20.8052 7.54537 20.9574 8.294 20.982C9.257 21.025 9.562 21.038 12.004 21.038C14.446 21.038 14.759 21.038 15.714 20.982C16.4612 20.9673 17.2004 20.8256 17.9 20.563C18.4977 20.3311 19.0405 19.9772 19.4938 19.5238C19.9472 19.0705 20.3011 18.5277 20.533 17.93C20.796 17.23 20.937 16.492 20.952 15.743C20.995 14.781 21.008 14.476 21.008 12.033C21.006 9.591 21.006 9.281 20.95 8.324V8.324ZM11.997 16.621C9.443 16.621 7.374 14.552 7.374 11.998C7.374 9.444 9.443 7.375 11.997 7.375C13.2231 7.375 14.399 7.86207 15.266 8.72905C16.1329 9.59603 16.62 10.7719 16.62 11.998C16.62 13.2241 16.1329 14.4 15.266 15.267C14.399 16.1339 13.2231 16.621 11.997 16.621V16.621ZM16.804 8.282C16.6624 8.28213 16.5222 8.25434 16.3913 8.20021C16.2605 8.14608 16.1416 8.06668 16.0414 7.96655C15.9413 7.86643 15.8619 7.74754 15.8078 7.61669C15.7537 7.48584 15.7259 7.3456 15.726 7.204C15.726 7.0625 15.7539 6.92239 15.808 6.79166C15.8622 6.66093 15.9415 6.54215 16.0416 6.44209C16.1416 6.34204 16.2604 6.26267 16.3912 6.20852C16.5219 6.15437 16.662 6.1265 16.8035 6.1265C16.945 6.1265 17.0851 6.15437 17.2158 6.20852C17.3466 6.26267 17.4654 6.34204 17.5654 6.44209C17.6655 6.54215 17.7448 6.66093 17.799 6.79166C17.8531 6.92239 17.881 7.0625 17.881 7.204C17.881 7.8 17.399 8.282 16.804 8.282Z" fill="currentcolor"/>
<path d="M12.0059 15.0255C13.6644 15.0255 15.0089 13.681 15.0089 12.0225C15.0089 10.364 13.6644 9.01953 12.0059 9.01953C10.3474 9.01953 9.00293 10.364 9.00293 12.0225C9.00293 13.681 10.3474 15.0255 12.0059 15.0255Z" fill="currentcolor"/>
</svg>
