<svg width="20" height="20" viewBox="0 0 20 20" fill="none" xmlns="http://www.w3.org/2000/svg">
<path fill-rule="evenodd" clip-rule="evenodd" d="M4 0C1.79086 0 0 1.79086 0 4V16C0 18.2091 1.79086 20 4 20H16C18.2091 20 20 18.2091 20 16V4C20 1.79086 18.2091 0 16 0H4ZM3.17854 7.2289H6.17914V16H3.17854V7.2289ZM4.69735 3C3.67076 3 3 3.65589 3 4.51554C3 5.35714 3.65036 6.03112 4.65764 6.03112H4.67703C5.72328 6.03112 6.37452 5.35714 6.37452 4.51554C6.3551 3.65589 5.72335 3 4.69735 3ZM10.8422 8.47081C11.2414 7.87334 11.9543 7.02273 13.546 7.02273C15.5198 7.02273 17 8.27602 17 10.9702V16H14.0001V11.3071C14.0001 10.1285 13.5654 9.32394 12.4803 9.32394C11.6515 9.32394 11.1576 9.86633 10.9411 10.3899C10.8615 10.5773 10.8422 10.8394 10.8422 11.1016V16H7.84237C7.84237 16 7.88215 8.05171 7.84237 7.22898H10.8422V8.47081Z" fill="currentcolor"/>
</svg>
