<svg width="24" height="26" viewBox="0 0 24 26" fill="none" xmlns="http://www.w3.org/2000/svg">
	<path fill-rule="evenodd" clip-rule="evenodd"
		d="M3.50134 3.26544V3.26538L5.50134 5.26538V5.26544L7.50134 7.26544V7.26538L10.236 10H10.2359L12.2359 12H12.236L14.236 14H14.2359L16.2359 16H16.236L17.5013 17.2654V17.2654L19.5013 19.2654V19.2654L21.4729 21.2369C21.4729 21.2369 21.4729 21.2369 21.4729 21.237L22.5886 22.3527L21.1743 23.7669L19.4075 22H4.50134C4.23613 22 3.98177 21.8946 3.79424 21.7071C3.6067 21.5196 3.50134 21.2652 3.50134 21V6.09387L1 3.59253L2.41421 2.17832L3.50134 3.26544ZM5.50134 8.09387V20H17.4075L15.4075 18H7.50134V16H13.4075L11.4075 14H7.50134V12H9.40747L5.50134 8.09387ZM9.06439 6L11.5013 8.43695V6H9.06439ZM15.0644 12L17.0644 14H17.5013V12H15.0644ZM19.5013 4V16.437L21.5013 18.437V3C21.5013 2.73478 21.396 2.48043 21.2085 2.29289C21.0209 2.10536 20.7666 2 20.5013 2H5.06439L7.06439 4H19.5013ZM13.5013 7H17.5013V9H13.5013V7Z"
		fill="currentcolor"
	/>
</svg>
