<svg width="24" height="24" viewBox="0 0 24 24" fill="none" xmlns="http://www.w3.org/2000/svg">
<path d="M23.0265 11.9397C22.9773 10.6079 21.859 9.56785 20.5232 9.61305C19.9311 9.63363 19.3681 9.87618 18.9407 10.283C17.0581 9.00043 14.8465 8.29741 12.5731 8.24817L13.6459 3.08926L17.1852 3.83344C17.2837 4.74189 18.0977 5.39971 19.0061 5.30085C19.9146 5.20236 20.5724 4.38836 20.4736 3.47991C20.3747 2.57146 19.5611 1.91364 18.6526 2.0125C18.1304 2.06579 17.6618 2.37007 17.4031 2.82246L13.35 2.0125C13.0748 1.95076 12.7991 2.12348 12.7374 2.40315C12.7374 2.40719 12.7374 2.40719 12.7374 2.41123L11.5166 8.14968C9.21459 8.1868 6.97433 8.89386 5.06703 10.1845C4.09684 9.27201 2.56769 9.31721 1.6552 10.2914C0.742708 11.2616 0.787911 12.7908 1.76214 13.7033C1.9514 13.88 2.16896 14.0322 2.41151 14.1391C2.39497 14.3817 2.39497 14.6242 2.41151 14.8668C2.41151 18.5704 6.72774 21.5835 12.0509 21.5835C17.3741 21.5835 21.6903 18.5744 21.6903 14.8668C21.7069 14.6242 21.7069 14.3817 21.6903 14.1391C22.5209 13.7239 23.0431 12.8687 23.0265 11.9397ZM6.48924 13.5963C6.48924 12.6838 7.23342 11.9397 8.14591 11.9397C9.0584 11.9397 9.80258 12.6838 9.80258 13.5963C9.80258 14.5088 9.0584 15.253 8.14591 15.253C7.22938 15.2446 6.48924 14.5088 6.48924 13.5963ZM16.0959 18.2084V18.1426C14.9203 19.0265 13.4816 19.4785 12.0098 19.4171C10.5379 19.4788 9.09956 19.0265 7.92358 18.1426C7.76739 17.9534 7.79605 17.67 7.98531 17.5138C8.14959 17.3782 8.38405 17.3782 8.55273 17.5138C9.54754 18.2415 10.7603 18.6116 11.9932 18.5539C13.2265 18.6196 14.4433 18.2661 15.4503 17.5469C15.6311 17.3701 15.9269 17.3742 16.104 17.555C16.2808 17.7358 16.2768 18.0316 16.0959 18.2084ZM15.8699 15.3721C15.8413 15.3721 15.8166 15.3721 15.7876 15.3721L15.8001 15.3103C14.8876 15.3103 14.1434 14.5662 14.1434 13.6537C14.1434 12.7412 14.8876 11.997 15.8001 11.997C16.7126 11.997 17.4568 12.7412 17.4568 13.6537C17.4935 14.5665 16.7824 15.335 15.8699 15.3721Z" fill="currentcolor"/>
</svg>
