<svg width="20" height="22" viewBox="0 0 20 22" fill="none" xmlns="http://www.w3.org/2000/svg">
	<path
		d="M0.741 0.407984L19.203 10.562C19.2814 10.6051 19.3468 10.6686 19.3923 10.7456C19.4378 10.8226 19.4618 10.9105 19.4618 11C19.4618 11.0895 19.4378 11.1773 19.3923 11.2544C19.3468 11.3314 19.2814 11.3948 19.203 11.438L0.741 21.592C0.664873 21.6339 0.579148 21.6552 0.492273 21.6538C0.405398 21.6525 0.320372 21.6285 0.245577 21.5843C0.170781 21.5401 0.108797 21.4772 0.0657334 21.4017C0.0226703 21.3263 1.48755e-05 21.2409 0 21.154V0.845984C1.48755e-05 0.759098 0.0226703 0.673717 0.0657334 0.598254C0.108797 0.522791 0.170781 0.459852 0.245577 0.415641C0.320372 0.37143 0.405398 0.347472 0.492273 0.346129C0.579148 0.344786 0.664873 0.366105 0.741 0.407984ZM2 12V18.617L15.85 11L2 3.38298V9.99998H7V12H2Z"
		fill="currentcolor"
	/>
</svg>
